<?xml version="1.0" encoding="UTF-8"?>
<svg id="Capa_1" data-name="Capa 1" xmlns="http://www.w3.org/2000/svg" version="1.1" xmlns:xlink="http://www.w3.org/1999/xlink" viewBox="0 0 1000 1000">
  <defs>
    <style>
      .cls-1 {
        font-family: MyriadPro-Regular, 'Myriad Pro';
        stroke-width: 1.72px;
      }

      .cls-1, .cls-2, .cls-3, .cls-4, .cls-5 {
        stroke: #000;
        stroke-miterlimit: 10;
      }

      .cls-1, .cls-2, .cls-5 {
        fill: #b9b9b9;
      }

      .cls-1, .cls-4, .cls-5 {
        font-size: 110.81px;
      }

      .cls-6 {
        fill: url(#Degradado_sin_nombre_18-5);
      }

      .cls-6, .cls-7, .cls-8, .cls-9, .cls-10, .cls-11, .cls-12, .cls-13, .cls-14, .cls-15, .cls-16, .cls-17, .cls-18, .cls-19, .cls-20, .cls-21, .cls-22, .cls-23, .cls-24, .cls-25, .cls-26, .cls-27 {
        stroke-width: 0px;
      }

      .cls-7 {
        fill: url(#Degradado_sin_nombre_6-3);
      }

      .cls-8 {
        fill: url(#Degradado_sin_nombre_6-5);
      }

      .cls-2 {
        stroke-width: 6.13px;
      }

      .cls-2, .cls-3 {
        font-size: 131.61px;
      }

      .cls-2, .cls-3, .cls-4, .cls-5 {
        font-family: FranklinM54, 'Franklin M54';
      }

      .cls-28 {
        isolation: isolate;
      }

      .cls-9 {
        fill: url(#Degradado_sin_nombre_6-7);
      }

      .cls-10 {
        fill: url(#Degradado_sin_nombre_6-2);
      }

      .cls-11 {
        fill: #fffdfd;
        opacity: .1;
      }

      .cls-3 {
        stroke-width: 3.27px;
      }

      .cls-3, .cls-4 {
        fill: none;
      }

      .cls-29 {
        opacity: .15;
      }

      .cls-12 {
        fill: #14632f;
      }

      .cls-4 {
        stroke-width: 2.75px;
      }

      .cls-13 {
        fill: #177438;
      }

      .cls-14 {
        fill: #f4efef;
      }

      .cls-15 {
        fill: url(#Degradado_sin_nombre_18-3);
      }

      .cls-16 {
        fill: url(#Degradado_sin_nombre_18);
      }

      .cls-17 {
        fill: url(#Degradado_sin_nombre_18-4);
      }

      .cls-18 {
        fill: url(#Degradado_sin_nombre_6-4);
      }

      .cls-19 {
        fill: #156831;
      }

      .cls-20 {
        fill: url(#Degradado_sin_nombre_18-6);
      }

      .cls-21 {
        fill: #18793a;
      }

      .cls-5 {
        stroke-width: 5.16px;
      }

      .cls-22 {
        fill: url(#Degradado_sin_nombre_6-6);
      }

      .cls-23 {
        fill: #23b054;
      }

      .cls-24 {
        fill: url(#Degradado_sin_nombre_6);
      }

      .cls-25 {
        fill: #177437;
      }

      .cls-26 {
        fill: url(#Degradado_sin_nombre_18-2);
      }

      .cls-27 {
        fill: url(#Degradado_sin_nombre_18-7);
      }
    </style>
    <linearGradient id="Degradado_sin_nombre_6" data-name="Degradado sin nombre 6" x1="456.25" y1="473.87" x2="455.75" y2="567.59" gradientUnits="userSpaceOnUse">
      <stop offset=".45" stop-color="#fff"/>
      <stop offset=".76" stop-color="#000"/>
    </linearGradient>
    <linearGradient id="Degradado_sin_nombre_18" data-name="Degradado sin nombre 18" x1="456.32" y1="485.49" x2="455.63" y2="559.39" gradientUnits="userSpaceOnUse">
      <stop offset=".08" stop-color="#b3b3b3"/>
      <stop offset="1" stop-color="#4d4d4d"/>
    </linearGradient>
    <linearGradient id="Degradado_sin_nombre_6-2" data-name="Degradado sin nombre 6" x1="456.21" y1="368.93" x2="455.79" y2="447.76" xlink:href="#Degradado_sin_nombre_6"/>
    <linearGradient id="Degradado_sin_nombre_6-3" data-name="Degradado sin nombre 6" x1="456.21" y1="368.93" x2="455.79" y2="447.76" xlink:href="#Degradado_sin_nombre_6"/>
    <linearGradient id="Degradado_sin_nombre_6-4" data-name="Degradado sin nombre 6" x1="456.21" y1="368.93" x2="455.79" y2="447.76" xlink:href="#Degradado_sin_nombre_6"/>
    <linearGradient id="Degradado_sin_nombre_6-5" data-name="Degradado sin nombre 6" x1="456.21" y1="368.93" x2="455.79" y2="447.76" xlink:href="#Degradado_sin_nombre_6"/>
    <linearGradient id="Degradado_sin_nombre_6-6" data-name="Degradado sin nombre 6" x1="456.21" y1="368.93" x2="455.79" y2="447.76" xlink:href="#Degradado_sin_nombre_6"/>
    <linearGradient id="Degradado_sin_nombre_6-7" data-name="Degradado sin nombre 6" x1="456.21" y1="368.93" x2="455.79" y2="447.76" xlink:href="#Degradado_sin_nombre_6"/>
    <linearGradient id="Degradado_sin_nombre_18-2" data-name="Degradado sin nombre 18" x1="456.27" y1="378.69" x2="455.69" y2="440.8" xlink:href="#Degradado_sin_nombre_18"/>
    <linearGradient id="Degradado_sin_nombre_18-3" data-name="Degradado sin nombre 18" x1="456.27" y1="378.69" x2="455.69" y2="440.8" xlink:href="#Degradado_sin_nombre_18"/>
    <linearGradient id="Degradado_sin_nombre_18-4" data-name="Degradado sin nombre 18" x1="456.27" y1="378.69" x2="455.69" y2="440.8" xlink:href="#Degradado_sin_nombre_18"/>
    <linearGradient id="Degradado_sin_nombre_18-5" data-name="Degradado sin nombre 18" x1="456.27" y1="378.69" x2="455.69" y2="440.8" xlink:href="#Degradado_sin_nombre_18"/>
    <linearGradient id="Degradado_sin_nombre_18-6" data-name="Degradado sin nombre 18" x1="456.27" y1="378.69" x2="455.69" y2="440.8" xlink:href="#Degradado_sin_nombre_18"/>
    <linearGradient id="Degradado_sin_nombre_18-7" data-name="Degradado sin nombre 18" x1="456.27" y1="378.69" x2="455.69" y2="440.8" xlink:href="#Degradado_sin_nombre_18"/>
  </defs>
  <g>
    <g class="cls-28">
      <polygon class="cls-12" points="566.14 623.81 549.1 616.34 545.88 576.27 562.92 583.74 566.14 623.81"/>
      <polygon class="cls-25" points="562.92 583.74 545.88 576.27 702.36 466.07 719.4 473.54 562.92 583.74"/>
      <polygon class="cls-12" points="719.4 473.54 702.36 466.07 554.88 359.42 571.93 366.89 719.4 473.54"/>
      <polygon class="cls-12" points="571.93 366.89 554.88 359.42 554.16 311.41 571.21 318.88 571.93 366.89"/>
      <polygon class="cls-23" points="571.21 318.88 791.48 475.4 566.14 623.81 562.92 583.74 719.4 473.54 571.93 366.89 571.21 318.88"/>
    </g>
    <g class="cls-28">
      <polygon class="cls-21" points="520.42 305.73 503.38 298.25 538.14 310.77 555.19 318.24 520.42 305.73"/>
      <polygon class="cls-19" points="373.89 613.59 356.84 606.12 503.38 298.25 520.42 305.73 373.89 613.59"/>
      <polygon class="cls-23" points="520.42 305.73 555.19 318.24 408.66 626.11 373.89 613.59 520.42 305.73"/>
    </g>
    <g class="cls-28">
      <polygon class="cls-12" points="360.36 618.93 343.32 611.46 120.35 458.06 137.39 465.54 360.36 618.93"/>
      <polygon class="cls-13" points="137.39 465.54 120.35 458.06 343.38 306.71 360.43 314.18 137.39 465.54"/>
      <polygon class="cls-23" points="360.43 314.18 364.31 354.17 209.54 466.42 358.86 570.97 360.36 618.93 137.39 465.54 360.43 314.18"/>
    </g>
  </g>
  <g>
    <g>
      <g>
        <path class="cls-24" d="M268.04,468.3l19.54,32.32,19.54-32.32h31.68v99.99h-31.55v-58.42l-20.31,29.5-19.02-29.37v58.29h-31.62v-99.99h31.75Z"/>
        <path class="cls-24" d="M414.92,472.93c3.11,3.08,4.66,6.81,4.66,11.18v68.38c0,4.37-1.55,8.1-4.66,11.18-3.11,3.08-6.82,4.63-11.15,4.63h-42.09c-4.37,0-8.1-1.54-11.18-4.63-3.08-3.08-4.63-6.81-4.63-11.18v-68.38c0-4.37,1.54-8.1,4.63-11.18,3.08-3.08,6.81-4.63,11.18-4.63h42.09c4.33,0,8.04,1.54,11.15,4.63ZM377.42,498.57v39.46c0,2.66,1.33,3.98,3.98,3.98h2.63c2.61,0,3.92-1.33,3.92-3.98v-39.46c0-2.66-1.31-3.98-3.92-3.98h-2.63c-2.66,0-3.98,1.33-3.98,3.98Z"/>
        <path class="cls-24" d="M484.54,468.3c4.33,0,8.04,1.54,11.15,4.63,3.11,3.08,4.66,6.81,4.66,11.18v18.96c0,3.6-1.09,6.81-3.28,9.64-2.19,2.83-4.93,4.69-8.23,5.59,3.3.94,6.04,2.81,8.23,5.59,2.19,2.79,3.28,5.98,3.28,9.58v20.63c0,3.13.3,5.86.9,8.19.6,2.34,2.06,4.34,4.37,6.01h-28.02c-5.91-2.87-8.87-7.6-8.87-14.2v-18.7c0-2.61-1.31-3.92-3.92-3.92h-6.62v36.82h-31.55v-99.99h57.9ZM458.2,494.59v10.54h6.62c2.61,0,3.92-1.31,3.92-3.92v-2.63c0-2.66-1.31-3.98-3.92-3.98h-6.62Z"/>
        <path class="cls-24" d="M524.97,468.3h57.9v26.28h-38.17c-2.61,0-3.92,1.33-3.92,3.98v39.46c0,2.66,1.31,3.98,3.92,3.98h6.62v-13.17h-5.33v-26.35h36.89v65.81h-57.9c-4.37,0-8.1-1.54-11.18-4.63-3.08-3.08-4.63-6.81-4.63-11.18v-68.38c0-4.37,1.54-8.1,4.63-11.18s6.81-4.63,11.18-4.63Z"/>
        <path class="cls-24" d="M640.51,544.58h-15.42l-3.6,23.71h-31.55l19.02-99.99h47.68l19.09,99.99h-31.55l-3.66-23.71ZM629.14,518.3h7.39l-3.66-23.97-3.73,23.97Z"/>
      </g>
      <text class="cls-2" transform="translate(232.76 568.3)"><tspan x="0" y="0">MORGA</tspan></text>
      <text class="cls-3" transform="translate(232.76 568.3)"><tspan x="0" y="0">MORGA</tspan></text>
      <g>
        <path class="cls-16" d="M268.04,468.3l19.54,32.32,19.54-32.32h31.68v99.99h-31.55v-58.42l-20.31,29.5-19.02-29.37v58.29h-31.62v-99.99h31.75Z"/>
        <path class="cls-16" d="M414.92,472.93c3.11,3.08,4.66,6.81,4.66,11.18v68.38c0,4.37-1.55,8.1-4.66,11.18-3.11,3.08-6.82,4.63-11.15,4.63h-42.09c-4.37,0-8.1-1.54-11.18-4.63-3.08-3.08-4.63-6.81-4.63-11.18v-68.38c0-4.37,1.54-8.1,4.63-11.18,3.08-3.08,6.81-4.63,11.18-4.63h42.09c4.33,0,8.04,1.54,11.15,4.63ZM377.42,498.57v39.46c0,2.66,1.33,3.98,3.98,3.98h2.63c2.61,0,3.92-1.33,3.92-3.98v-39.46c0-2.66-1.31-3.98-3.92-3.98h-2.63c-2.66,0-3.98,1.33-3.98,3.98Z"/>
        <path class="cls-16" d="M484.54,468.3c4.33,0,8.04,1.54,11.15,4.63,3.11,3.08,4.66,6.81,4.66,11.18v18.96c0,3.6-1.09,6.81-3.28,9.64-2.19,2.83-4.93,4.69-8.23,5.59,3.3.94,6.04,2.81,8.23,5.59,2.19,2.79,3.28,5.98,3.28,9.58v20.63c0,3.13.3,5.86.9,8.19.6,2.34,2.06,4.34,4.37,6.01h-28.02c-5.91-2.87-8.87-7.6-8.87-14.2v-18.7c0-2.61-1.31-3.92-3.92-3.92h-6.62v36.82h-31.55v-99.99h57.9ZM458.2,494.59v10.54h6.62c2.61,0,3.92-1.31,3.92-3.92v-2.63c0-2.66-1.31-3.98-3.92-3.98h-6.62Z"/>
        <path class="cls-16" d="M524.97,468.3h57.9v26.28h-38.17c-2.61,0-3.92,1.33-3.92,3.98v39.46c0,2.66,1.31,3.98,3.92,3.98h6.62v-13.17h-5.33v-26.35h36.89v65.81h-57.9c-4.37,0-8.1-1.54-11.18-4.63-3.08-3.08-4.63-6.81-4.63-11.18v-68.38c0-4.37,1.54-8.1,4.63-11.18s6.81-4.63,11.18-4.63Z"/>
        <path class="cls-16" d="M640.51,544.58h-15.42l-3.6,23.71h-31.55l19.02-99.99h47.68l19.09,99.99h-31.55l-3.66-23.71ZM629.14,518.3h7.39l-3.66-23.97-3.73,23.97Z"/>
      </g>
    </g>
    <g class="cls-29">
      <path class="cls-14" d="M268.39,469.1l19.66,29.71,19.66-29.71h31.89v91.92h-31.76v-53.7l-20.44,27.12-19.14-27v53.58h-31.82v-91.92h31.95Z"/>
      <path class="cls-14" d="M416.21,473.35c3.13,2.84,4.69,6.26,4.69,10.28v62.86c0,4.02-1.56,7.44-4.69,10.28-3.13,2.84-6.87,4.25-11.22,4.25h-42.36c-4.4,0-8.15-1.42-11.25-4.25-3.1-2.84-4.66-6.26-4.66-10.28v-62.86c0-4.02,1.55-7.44,4.66-10.28,3.1-2.84,6.86-4.25,11.25-4.25h42.36c4.35,0,8.09,1.42,11.22,4.25ZM378.47,496.92v36.27c0,2.44-.53,9.24,2.15,9.24l6.13-.41c2.63,0,2.33-6.39,2.33-8.83v-36.27c0-2.44-1.32-3.66-3.95-3.66h-2.65c-2.67,0-4.01,1.22-4.01,3.66Z"/>
      <path class="cls-14" d="M486.29,469.1c4.35,0,8.09,1.42,11.22,4.25,3.13,2.84,4.69,6.26,4.69,10.28v17.43c0,3.31-1.1,6.26-3.3,8.86-2.2,2.6-4.96,4.31-8.28,5.14,3.32.87-.62,2.34,1.58,4.9,2.2,2.56,7.77,6.09,7.77,9.4l.82,19.21c0,2.88.21,4.8.82,6.95.6,2.15-1.51,3.78.82,5.31l-23.12.19c-5.95-2.64-8.93-6.99-8.93-13.06v-17.19c0-2.4-1.32-3.6-3.95-3.6h-6.66v33.85h-31.76v-91.92h58.27ZM459.77,493.26v9.69h6.66c2.63,0,3.95-1.2,3.95-3.6v-2.42c0-2.44-1.32-3.66-3.95-3.66h-6.66Z"/>
      <path class="cls-14" d="M525.34,469.51h58.27v24.16h-38.42c-2.63,0-3.95,1.22-3.95,3.66v36.27c0,2.44-.18,8.01,2.45,8.01h7.36l.8-16.46h-5.37v-24.22h37.13v60.49h-58.27c-4.4,0-8.15-1.42-11.25-4.25-3.1-2.84-4.66-6.26-4.66-10.28v-62.86c0-4.02,1.55-7.44,4.66-10.28,3.1-2.84,6.86-4.25,11.25-4.25Z"/>
      <path class="cls-14" d="M643.26,539.22h-15.52l-3.62,21.8h-31.76l19.14-91.92,45.82.58,17.17,91.15-27.55.19-3.69-21.8ZM631.81,515.06h7.44l-3.69-22.03-3.75,22.03Z"/>
    </g>
  </g>
  <g>
    <g>
      <g>
        <path class="cls-10" d="M287.04,364.24h46.59v22.13h-29.92c-2.24,0-3.35,1.12-3.35,3.35v33.22c0,2.24,1.12,3.35,3.35,3.35h29.92v22.13h-46.59c-3.68,0-6.81-1.3-9.39-3.9-2.58-2.6-3.87-5.74-3.87-9.41v-57.57c0-3.68,1.29-6.82,3.87-9.41,2.58-2.6,5.71-3.9,9.39-3.9Z"/>
        <path class="cls-7" d="M397.71,368.14c2.61,2.6,3.92,5.74,3.92,9.41v57.57c0,3.68-1.31,6.82-3.92,9.41-2.62,2.6-5.74,3.9-9.39,3.9h-35.44c-3.68,0-6.82-1.3-9.41-3.9s-3.9-5.74-3.9-9.41v-57.57c0-3.68,1.3-6.82,3.9-9.41s5.74-3.9,9.41-3.9h35.44c3.64,0,6.77,1.3,9.39,3.9ZM366.14,389.73v33.22c0,2.24,1.12,3.35,3.35,3.35h2.22c2.2,0,3.3-1.12,3.3-3.35v-33.22c0-2.24-1.1-3.35-3.3-3.35h-2.22c-2.24,0-3.35,1.12-3.35,3.35Z"/>
        <path class="cls-18" d="M456.34,364.24c3.64,0,6.77,1.3,9.39,3.9,2.61,2.6,3.92,5.74,3.92,9.41v57.57c0,3.68-1.31,6.82-3.92,9.41-2.62,2.6-5.74,3.9-9.39,3.9h-48.75v-84.19h48.75ZM434.21,386.37v39.93h5.52c2.2,0,3.3-1.12,3.3-3.35v-33.22c0-2.24-1.1-3.35-3.3-3.35h-5.52Z"/>
        <path class="cls-8" d="M475.6,364.24h26.62v84.19h-26.62v-84.19Z"/>
        <path class="cls-22" d="M521.48,364.24h48.75v22.13h-32.14c-2.2,0-3.3,1.12-3.3,3.35v33.22c0,2.24,1.1,3.35,3.3,3.35h5.57v-11.09h-4.49v-22.18h31.06v55.41h-48.75c-3.68,0-6.82-1.3-9.42-3.9-2.6-2.6-3.9-5.74-3.9-9.41v-57.57c0-3.68,1.3-6.82,3.9-9.41,2.6-2.6,5.74-3.9,9.42-3.9Z"/>
        <path class="cls-9" d="M634.32,368.14c2.61,2.6,3.92,5.74,3.92,9.41v57.57c0,3.68-1.31,6.82-3.92,9.41-2.62,2.6-5.75,3.9-9.39,3.9h-35.44c-3.68,0-6.82-1.3-9.42-3.9-2.6-2.6-3.9-5.74-3.9-9.41v-57.57c0-3.68,1.3-6.82,3.9-9.41,2.6-2.6,5.74-3.9,9.42-3.9h35.44c3.64,0,6.77,1.3,9.39,3.9ZM602.75,389.73v33.22c0,2.24,1.12,3.35,3.35,3.35h2.22c2.2,0,3.3-1.12,3.3-3.35v-33.22c0-2.24-1.1-3.35-3.3-3.35h-2.22c-2.24,0-3.35,1.12-3.35,3.35Z"/>
      </g>
      <text class="cls-5" transform="translate(270.81 448.43)"><tspan x="0" y="0">CODIGO</tspan></text>
      <text class="cls-4" transform="translate(270.81 448.43)"><tspan x="0" y="0">CODIGO</tspan></text>
      <g>
        <path class="cls-26" d="M287.04,364.24h46.59v22.13h-29.92c-2.24,0-3.35,1.12-3.35,3.35v33.22c0,2.24,1.12,3.35,3.35,3.35h29.92v22.13h-46.59c-3.68,0-6.81-1.3-9.39-3.9-2.58-2.6-3.87-5.74-3.87-9.41v-57.57c0-3.68,1.29-6.82,3.87-9.41,2.58-2.6,5.71-3.9,9.39-3.9Z"/>
        <path class="cls-15" d="M397.71,368.14c2.61,2.6,3.92,5.74,3.92,9.41v57.57c0,3.68-1.31,6.82-3.92,9.41-2.62,2.6-5.74,3.9-9.39,3.9h-35.44c-3.68,0-6.82-1.3-9.41-3.9s-3.9-5.74-3.9-9.41v-57.57c0-3.68,1.3-6.82,3.9-9.41s5.74-3.9,9.41-3.9h35.44c3.64,0,6.77,1.3,9.39,3.9ZM366.14,389.73v33.22c0,2.24,1.12,3.35,3.35,3.35h2.22c2.2,0,3.3-1.12,3.3-3.35v-33.22c0-2.24-1.1-3.35-3.3-3.35h-2.22c-2.24,0-3.35,1.12-3.35,3.35Z"/>
        <path class="cls-17" d="M456.34,364.24c3.64,0,6.77,1.3,9.39,3.9,2.61,2.6,3.92,5.74,3.92,9.41v57.57c0,3.68-1.31,6.82-3.92,9.41-2.62,2.6-5.74,3.9-9.39,3.9h-48.75v-84.19h48.75ZM434.21,386.37v39.93h5.52c2.2,0,3.3-1.12,3.3-3.35v-33.22c0-2.24-1.1-3.35-3.3-3.35h-5.52Z"/>
        <path class="cls-6" d="M475.6,364.24h26.62v84.19h-26.62v-84.19Z"/>
        <path class="cls-20" d="M521.48,364.24h48.75v22.13h-32.14c-2.2,0-3.3,1.12-3.3,3.35v33.22c0,2.24,1.1,3.35,3.3,3.35h5.57v-11.09h-4.49v-22.18h31.06v55.41h-48.75c-3.68,0-6.82-1.3-9.42-3.9-2.6-2.6-3.9-5.74-3.9-9.41v-57.57c0-3.68,1.3-6.82,3.9-9.41,2.6-2.6,5.74-3.9,9.42-3.9Z"/>
        <path class="cls-27" d="M634.32,368.14c2.61,2.6,3.92,5.74,3.92,9.41v57.57c0,3.68-1.31,6.82-3.92,9.41-2.62,2.6-5.75,3.9-9.39,3.9h-35.44c-3.68,0-6.82-1.3-9.42-3.9-2.6-2.6-3.9-5.74-3.9-9.41v-57.57c0-3.68,1.3-6.82,3.9-9.41,2.6-2.6,5.74-3.9,9.42-3.9h35.44c3.64,0,6.77,1.3,9.39,3.9ZM602.75,389.73v33.22c0,2.24,1.12,3.35,3.35,3.35h2.22c2.2,0,3.3-1.12,3.3-3.35v-33.22c0-2.24-1.1-3.35-3.3-3.35h-2.22c-2.24,0-3.35,1.12-3.35,3.35Z"/>
      </g>
    </g>
    <g>
      <path class="cls-11" d="M288.02,367.96h46.7v19.12h-29.99c-2.24,0-3.36.97-3.36,2.9v28.7c0,1.93-1.57,6.61.67,6.61l32,.34.68,15.07h-46.7c-3.69,0-6.83-1.12-9.41-3.37-2.59-2.24-3.88-4.96-3.88-8.13v-49.74c0-3.18,1.29-5.89,3.88-8.13,2.58-2.24,5.72-3.37,9.41-3.37Z"/>
      <path class="cls-11" d="M398.97,371.32c2.62,2.24,3.93,4.96,3.93,8.13v49.74c0,3.18-1.31,5.89-3.93,8.13-2.62,2.24-5.76,3.37-9.41,3.37h-35.53c-3.69,0-6.83-1.12-9.44-3.37-2.6-2.24-3.91-4.96-3.91-8.13v-49.74c0-3.18,1.3-5.89,3.91-8.13,2.6-2.24,5.75-3.37,9.44-3.37h35.53c3.65,0,6.79,1.12,9.41,3.37ZM367.32,389.97v28.7c0,1.93-1.45,7.64.79,7.64l5.16-.34c2.21,0,2.95-5.36,2.95-7.29v-28.7c0-1.93-1.1-2.9-3.31-2.9h-2.22c-2.24,0-3.36.97-3.36,2.9Z"/>
      <path class="cls-11" d="M457.73,367.96c3.65,0,6.79,1.12,9.41,3.37,2.62,2.24,3.93,4.96,3.93,8.13v49.74c0,3.18-1.31,5.89-3.93,8.13-2.62,2.24-5.76,3.37-9.41,3.37h-48.87v-72.74h48.87ZM435.55,387.08l-1.03,38.21h6.54c2.21,0,3.33-4.67,3.33-6.61v-28.7c0-1.93-1.1-2.9-3.31-2.9h-5.53Z"/>
      <path class="cls-11" d="M477.04,367.96h26.69v72.74h-26.69v-72.74Z"/>
      <path class="cls-11" d="M523.04,367.96h48.87v19.12h-32.22c-2.21,0-5.02,1.17-5.02,3.11l-.34,28.56c0,1.93.89,7.57,3.1,7.57l6.19-1.03,1.66-13.29h-4.5v-19.17h31.13v47.87h-48.87c-3.69,0-6.83-1.12-9.44-3.37-2.6-2.24-3.91-4.96-3.91-8.13v-49.74c0-3.18,1.3-5.89,3.91-8.13,2.6-2.24,5.75-3.37,9.44-3.37Z"/>
      <path class="cls-11" d="M636.15,371.32c2.62,2.24,3.93,4.96,3.93,8.13v49.74c0,3.18-1.31,5.89-3.93,8.13-2.62,2.24-5.76,3.37-9.41,3.37h-35.53c-3.69,0-6.83-1.12-9.44-3.37-2.6-2.24-3.91-4.96-3.91-8.13v-49.74c0-3.18,1.3-5.89,3.91-8.13,2.6-2.24,5.75-3.37,9.44-3.37h35.53c3.65,0,6.79,1.12,9.41,3.37ZM604.5,389.97l-1.36,29.11c0,1.93-.52,6.19,1.72,6.19l4.82.34c2.21,0,3.71-5.02,3.71-6.95v-28.7c0-1.93-1.1-2.9-3.31-2.9h-2.22c-2.24,0-3.36.97-3.36,2.9Z"/>
    </g>
  </g>
  <text class="cls-1" transform="translate(347.35 417.24)"><tspan x="0" y="0">´</tspan></text>
</svg>